<svg width="24" height="24" viewBox="0 0 24 24" fill="none" xmlns="http://www.w3.org/2000/svg">
<path d="M14.541 13.6279C14.3469 13.5067 14.1292 13.4101 13.8622 13.3372C13.5952 13.2643 13.3045 13.1914 12.9893 13.1195V16.3668C13.2799 16.3185 13.5469 16.2456 13.8129 16.1727C14.0799 16.0998 14.2977 15.9786 14.4918 15.8338C14.6859 15.688 14.8307 15.5431 14.9519 15.349C15.0731 15.1549 15.1214 14.9372 15.1214 14.6702C15.1214 14.4278 15.0731 14.2337 14.9756 14.0642C14.8563 13.8938 14.7105 13.7491 14.541 13.6279Z" fill="#396EF1"/>
<path d="M9.35486 9.55577C9.35486 9.99224 9.52433 10.3312 9.8396 10.5735C10.1549 10.8159 10.6633 10.9854 11.3421 11.1066V7.88277C10.0091 8.05318 9.35486 8.60996 9.35486 9.55577Z" fill="#396EF1"/>
<path d="M12.2386 0.636169C5.88862 0.636169 0.72583 5.79896 0.72583 12.1489C0.72583 18.4988 5.88862 23.6616 12.2386 23.6616C18.5885 23.6616 23.7513 18.4988 23.7513 12.1489C23.7513 5.79896 18.5885 0.636169 12.2386 0.636169ZM16.7954 15.9304C16.6013 16.3186 16.3353 16.6575 15.9717 16.9482C15.6082 17.2388 15.1717 17.4812 14.687 17.6507C14.2022 17.8201 13.6209 17.9659 12.9903 18.0625V19.4202H11.342V18.16C10.9538 18.16 10.5666 18.1354 10.1548 18.1118C9.76659 18.0871 9.37938 18.0389 9.03947 17.966C8.70054 17.9177 8.38526 17.8448 8.0946 17.7719C7.80395 17.699 7.58523 17.6261 7.41577 17.5295V15.8083C7.68276 15.9048 7.99707 16.0023 8.36063 16.0989C8.72419 16.1955 9.16066 16.293 9.69369 16.3659C10.2031 16.4388 10.7361 16.4625 11.2445 16.4625H11.3411L11.342 12.9008C10.8573 12.8279 10.3725 12.7067 9.88776 12.5855C9.42764 12.4643 8.99118 12.2702 8.62762 12.0279C8.26406 11.7855 7.94878 11.4702 7.73103 11.083C7.51327 10.6948 7.3921 10.2101 7.3921 9.62877C7.3921 9.14402 7.48867 8.6839 7.68275 8.29571C7.87684 7.88387 8.14287 7.54397 8.50643 7.25332C8.84537 6.96266 9.25818 6.72029 9.74292 6.55082C10.2277 6.35673 10.7607 6.23554 11.343 6.18726L11.342 4.87789H12.9904V6.13804C13.6692 6.16265 14.2988 6.23461 14.8811 6.33212C15.4624 6.42869 15.9964 6.54988 16.4565 6.72031V8.4652C15.9235 8.29573 15.3904 8.17455 14.8328 8.05336C14.2751 7.93217 13.6455 7.85927 12.9904 7.8356V11.3747C13.4997 11.4713 13.9845 11.5688 14.4692 11.7137C14.954 11.8349 15.3904 12.0289 15.7776 12.2713C16.1658 12.5137 16.4801 12.829 16.7225 13.1925C16.9649 13.5807 17.0861 14.0655 17.0861 14.6468C17.0861 15.1059 16.9895 15.5422 16.7954 15.9304Z" fill="#396EF1"/>
</svg>
