<svg width="21" height="21" viewBox="0 0 21 21" fill="none" xmlns="http://www.w3.org/2000/svg">
<path d="M14.2042 8.37197C14.4395 8.57856 14.5751 8.87512 14.5779 9.18731C14.5806 9.50039 14.4505 9.79881 14.2189 10.01L10.9193 13.3007C10.4496 13.7377 9.72066 13.7377 9.251 13.3007L7.06601 11.1191C6.83164 10.9089 6.69877 10.6086 6.70061 10.2946C6.70153 9.98062 6.83717 9.68221 7.07338 9.47379C8.1059 8.53543 8.8247 9.57387 9.56096 10.2965C9.8507 10.5829 10.3194 10.5829 10.6092 10.2965L12.5506 8.36464C12.7619 8.13143 13.0636 7.99921 13.3792 8.00104C13.6947 8.00196 13.9947 8.13693 14.2042 8.37197ZM19.8143 13.3301C19.2321 13.9076 18.9054 14.6936 18.9063 15.5116C18.9054 16.4509 18.5308 17.3507 17.8636 18.0144C17.1965 18.6782 16.2923 19.051 15.3484 19.0519C14.5263 19.051 13.7365 19.376 13.1561 19.9554C12.488 20.6183 11.5828 20.9911 10.639 20.9911C9.69511 20.9911 8.78986 20.6183 8.12187 19.9554C7.54149 19.3761 6.75163 19.051 5.92951 19.0519C4.98557 19.051 4.08132 18.6783 3.4143 18.0144C2.74718 17.3506 2.37254 16.4508 2.37162 15.5116C2.37255 14.6935 2.04591 13.9076 1.46366 13.3301C0.797464 12.6653 0.422852 11.7646 0.422852 10.8254C0.422852 9.8862 0.797464 8.98543 1.46366 8.32073C2.04588 7.74322 2.37254 6.95726 2.37162 6.1392C2.37255 5.19992 2.74716 4.30014 3.4143 3.63641C4.08142 2.97258 4.98567 2.5998 5.92951 2.59888C6.75166 2.5998 7.54149 2.27477 8.12187 1.6954C8.78991 1.03249 9.69511 0.659729 10.639 0.659729C11.5828 0.659729 12.4881 1.03249 13.1561 1.6954C13.7365 2.27475 14.5263 2.5998 15.3484 2.59888C16.2924 2.5998 17.1966 2.97256 17.8636 3.63641C18.5308 4.30023 18.9054 5.20002 18.9063 6.1392C18.9054 6.95729 19.232 7.74322 19.8143 8.32073C20.4805 8.98547 20.8551 9.8862 20.8551 10.8254C20.8551 11.7646 20.4805 12.6654 19.8143 13.3301ZM15.2449 7.33635C14.7605 6.82768 14.0897 6.53848 13.3857 6.53387C12.6826 6.5302 12.0072 6.81207 11.5172 7.3143L10.0851 8.73928C9.94487 8.60707 9.83414 8.50424 9.73817 8.42343L9.75293 8.40873C7.24032 6.02511 3.5967 9.64457 6.01034 12.1474L8.21009 14.3363C9.24906 15.3591 10.9211 15.3591 11.96 14.3363L15.2743 11.0383C15.7781 10.5508 16.0605 9.88054 16.0549 9.18092C16.0494 8.48219 15.7571 7.81564 15.2449 7.33635Z" fill="#396EF1"/>
</svg>
